<?xml version="1.0" encoding="utf-8"?>
<!-- Generator: Adobe Illustrator 26.5.0, SVG Export Plug-In . SVG Version: 6.00 Build 0)  -->
<svg version="1.1" id="Layer_1" xmlns="http://www.w3.org/2000/svg" xmlns:xlink="http://www.w3.org/1999/xlink" x="0px" y="0px"
	 viewBox="0 0 1439 249" style="enable-background:new 0 0 1439 249;" xml:space="preserve">
<style type="text/css">
	.st0{fill-rule:evenodd;clip-rule:evenodd;fill:#F9F9F9;}
</style>
<path class="st0" d="M137.75-1936.73c318.18-163.43,609.58-437.65,958.31-427.88c343.12,9.62,540.01,288.01,782.48,476.68
	c214.36,166.8,482.47,305.45,545.98,557.03c62.56,247.81-113.61,504.33-213.54,759.76c-105.75,270.31-102.5,616.21-385.92,772.56
	c-284.9,157.16-606.4-50.7-925.85-48.93c-297.78,1.66-616.65,161.11-876.23,58.95C-253.28,102.72-360.43-167.2-501.41-398.72
	c-182.35-299.46-559.04-585.26-414.83-932.27C-772.57-1676.71-232.94-1746.33,137.75-1936.73z"/>
</svg>
