<?xml version="1.0" encoding="utf-8"?>
<!-- Generator: Adobe Illustrator 26.5.0, SVG Export Plug-In . SVG Version: 6.00 Build 0)  -->
<svg version="1.1" id="Layer_1" xmlns="http://www.w3.org/2000/svg" xmlns:xlink="http://www.w3.org/1999/xlink" x="0px" y="0px"
	 viewBox="0 0 1439 661" style="enable-background:new 0 0 1439 661;" xml:space="preserve">
<style type="text/css">
	.st0{fill-rule:evenodd;clip-rule:evenodd;fill:#FFFFFF;}
</style>
<path class="st0" d="M-494.42-1080.67c207.91-211.91,363.73-505.17,644.1-587c275.86-80.51,509.97,90.6,755.44,178.54
	c217.01,77.75,469,119.28,589.48,303.31c118.66,181.27,49.67,430.82,41.09,659.92c-9.09,242.44,89.61,517.07-92.59,714.41
	c-183.17,198.37-496.89,115.44-750.74,198.95C455.75,465.3,246.17,674.22,11.11,659.57c-250.16-15.59-410.47-203.01-587.05-351.16
	c-228.39-191.63-607.72-322.43-589.33-635.84C-1146.94-639.67-736.64-833.78-494.42-1080.67z"/>
</svg>
