<svg width="172" height="172" viewBox="0 0 172 172" fill="none" xmlns="http://www.w3.org/2000/svg">
<circle cx="86" cy="86" r="86" fill="black"/>
<path d="M138.026 92.7614C137.376 93.5951 119.109 114.542 119.109 114.542C119.109 114.542 103.624 100.918 100.749 98.4163C98.0897 96.101 94.0853 94.2638 93.5005 94.0001L113.294 71.3895C116.991 67.4247 118.95 70.0761 119.943 70.7978C120.963 71.5396 133.482 82.6605 137.283 85.904C141.086 89.1475 138.675 91.9286 138.026 92.7614ZM30.9606 86.9317C31.2915 86.481 53.5568 61.0872 53.5568 61.0872L72.7242 77.7957C72.7242 77.7957 75.0848 79.6291 76.8132 80.5306C78.1411 81.2229 79.0463 81.5623 79.1904 81.615L55.0012 109.224C53.5381 107.955 32.3695 89.6 31.3665 88.6134C30.4034 87.6686 30.6297 87.3822 30.9606 86.9317ZM158.819 82.6166C156.412 77.9584 152.178 74.7357 152.178 74.7357L114.215 41.6393L92.4779 66.4502C91.6986 66.7418 87.2205 68.111 81.8464 63.4252C75.9286 58.2645 64.118 47.7369 60.2644 44.6944C56.4101 41.6521 50.7705 39.3311 44.7668 46.1518C38.239 53.5685 18.1545 76.4947 17.9672 76.7234C17.7796 76.9519 6.38496 87.9407 17.9672 98.3658C29.5494 108.791 58.4664 134.019 58.4664 134.019L80.167 109.231C80.5435 109.07 81.9987 108.53 84.0253 108.816C86.5785 109.176 88.9111 110.626 90.128 111.663C92.7259 113.876 102.618 122.516 112.045 130.681C121.472 138.845 128.034 129.454 128.034 129.454C128.034 129.454 145.502 109.472 155.841 97.5043C160.411 92.2157 160.691 86.2394 158.819 82.6166Z" fill="#A29F9F"/>
<path opacity="0.8" d="M81.8133 63.4284C78.5198 60.5556 75.2459 57.6447 70.6889 53.6627L59.5581 66.3659L72.6924 77.7991C72.6924 77.7991 75.0522 79.6328 76.7816 80.5338C78.1092 81.2268 79.0142 81.565 79.1587 81.618L92.445 66.4527C91.6657 66.745 87.1872 68.1149 81.8133 63.4284Z" fill="#928F8F"/>
<path opacity="0.8" d="M100.717 98.419C98.0582 96.1042 94.0518 94.2664 93.4668 94.0033L80.1345 109.233C80.5114 109.073 81.9663 108.531 83.993 108.817C86.5464 109.177 88.8774 110.629 90.0971 111.667C91.9374 113.236 97.4535 118.04 103.866 123.614L114.97 110.931C110.17 106.71 102.635 100.087 100.717 98.419Z" fill="#928F8F"/>
<path d="M114.215 41.6393L55.0012 109.224L58.4664 134.019L128.484 54.1402L114.215 41.6393Z" fill="#64C2E9"/>
<path d="M25.7593 105.349L36.6123 93.0726L55.0011 109.224L58.4663 134.019L25.7593 105.349Z" fill="#4EA8D1"/>
</svg>
