<?xml version="1.0" encoding="UTF-8"?><svg id="Master_Layer" xmlns="http://www.w3.org/2000/svg" viewBox="0 0 1330.773703549609309 179.099283086234209"><defs><style>.cls-1{fill:none;}.cls-2{fill:#65c3ea;}.cls-3,.cls-4{fill:#939090;}.cls-5{fill:#a4a0a0;}.cls-6{fill:#4ea9d1;}.cls-4{isolation:isolate;opacity:.800000011920929;}</style></defs><g id="Layer_1"><path class="cls-3" d="M382.22142222192997,155.268811846761309c40.191516393701022,0,60.306990244857843-14.640249937063345,60.306990244857843-43.893597272839543h-29.975136490535078c0,12.694792716400116-14.103053738272138,19.209091740427539-30.331853754322765,19.209091740427539-22.741105322227668,0-33.67715407704236-11.626729581832478-33.67715407704236-38.969873691960856,0-26.264764276841561,10.216379903165944-38.60287137576961,33.67715407704236-38.60287137576961,17.093693807685668,0,30.510275678846483,5.290694250755223,30.510275678846483,19.395868292138402h29.975136490535078c-2.121695549447395-29.442212544280665-25.227809470017746-44.080373824548587-60.485412169381561-44.080373824548587-43.034906158963167,0-63.652290567577438,19.393811281655871-63.652290567577438,63.287376908179795,0,43.034906158959529,19.393716342710832,63.65437922437286,63.652290567577438,63.65437922437286h0Zm141.768466158177034,0c42.134916603884449,0,63.287313615538551-20.441082787201594,63.287313615538551-63.65437922437286,0-42.313306882092547-19.750465252798676-63.287376908179795-63.287313615538551-63.287376908179795-42.499798616966473,0-63.65428428542873,19.750465252815047-63.65428428542873,63.287376908179795,0,42.501918920076605,19.905975245205809,63.65437922437286,63.65428428542873,63.65437922437286h0Zm-33.679211087523981-63.65437922437286c0-25.908078659369494,10.573097166952721-38.60287137576961,33.679211087523981-38.60287137576961,22.019379460100936,0,33.312177125018025,12.338107098928049,33.312177125018025,38.60287137576961,0,26.094633686870111-10.247456584598694,38.969873691960856-33.312177125018025,38.969873691960856-22.595848735926666,0-33.679211087523981-12.161773831199753-33.679211087523981-38.969873691960856h0Zm173.290854286495232,61.895571970156197h32.455574667943438l28.743208736384986-68.586204261911917v68.586204261911917h29.975073197905658V30.092065646183073h-37.022517692405017l-37.924627550586592,90.632672967732105-37.889373555555721-90.632672967732105h-37.032897683753617v123.417938946361573h29.977161854709266V84.92380033063273l28.718398025357601,68.586204261911917Zm108.802626305601734,0h29.975136490536897v-35.265894033918812h31.733848805795787c29.43183255292206,0,43.53684836272987-13.748235253389794,43.53684836272987-44.258479285919748,0-29.074957057565371-13.740007211457851-43.893565626523014-43.53684836272987-43.893565626523014h-61.708985296332685v123.417938946361573Zm61.708985296332685-59.950241334751809h-31.733848805795787V54.770210269259223h31.198772910107436c9.349460747373087,0,14.105142395083021,6.010489687663721,14.105142395083021,19.393811281655871,0,12.881442682847592-4.57732301581018,19.395741706877743-13.57006649939467,19.395741706877743h0Zm61.173972693297401,59.950241334751809h100.498569931172824v-24.684378947149526h-70.531788067832167V30.092065646183073h-29.966781863340657v123.417938946361573Zm132.232355444346467-47.603874547585292v47.603874547585292h29.975136490544173v-47.603874547585292l47.603906193900912-75.814064398776281h-31.742140140353513l-30.864904285843295,49.184259877278237-30.842118938975545-49.184259877278237h-31.733785513159091l47.60390619388636,75.814064398776281Zm225.673037597096481,47.603874547585292h29.977415025221489l-46.739202280172321-123.417938946361573h-31.731760149006732l-46.714138398592695,123.417938946361573h29.975009905274419l8.636026219781343-22.925698278195341h47.960623457689508l8.63602621980499,22.925698278195341Zm-17.983335017734134-47.603874547585292h-29.255499285209225l14.60692636726526-38.611131064008987,14.648572917943966,38.611131064008987Zm65.589393161055341,47.603874547585292h29.975136490535078V30.092065646183073h-29.975136490535078v123.417938946361573Zm0,0"/><g id="logo-logo"><g><path class="cls-5" d="M242.693336693911988,99.111640813520353c-1.258461371280646,1.616405686878352-36.655572847684198,42.226563262129275-36.655572847684198,42.226563262129275,0,0-30.005321891459062-26.413210571052332-35.575407760693452-31.263332824251847-5.153311482044955-4.488557491051324-12.912693686959756-8.050351657957435-14.045805741277036-8.561700433645456l38.352983018579835-43.835728919038047c7.16476801373301-7.686524885439212,10.960515939116704-2.546336213957147,12.884635522935241-1.147139410099044,1.976610826078286,1.438112962942796,26.234010496772498,22.998483329568444,33.599697919483333,29.286718545711665,7.36930754558125,6.288234353026382,2.69657379477394,11.6800241537494,1.439469888656276,13.294619779193454m-207.460152131517134-11.302169054438309c.641232794460848-.873818298826336,43.784600967977894-50.10541016929983,43.784600967977894-50.10541016929983l37.140668018417273,32.393279833428096s4.574084916929678,3.554551979145799,7.92319465312994,5.302188576796652c2.573037560156081,1.342179383055736,4.327012879248286,2.000144537788401,4.606213534427297,2.102413386653097l-46.871233778112583,53.526016091571364c-2.83505185622289-2.459903811302866-43.853374024130062-38.045265453396496-45.796958592417468-39.958072611760144-1.866194165339039-1.831805911030642-1.427703788028339-2.387049081172336-.786484803422354-3.260415107389235m247.751734362305797-8.36575979949248c-4.665495770736015-9.030963905300268-12.869703621938243-15.278923555186338-12.869703621938243-15.278923555186338L196.555633846965975,0l-42.120672779939923,48.101643135067206c-1.510058832280265,.565199209333514-10.187153946259059,3.219687268525377-20.600575390220001-5.864674150482642-11.466885184751845-10.005247141253676-34.352238217934428-30.415308737061423-41.819293504642701-36.31392404793678C84.546683520093211,.024885350841942,73.618755376008266-4.474985428784748,61.985337202469964,8.748588710708646c-12.648870300459748,14.378864813927976-51.56658989837797,58.826397304170314-51.929512773021088,59.269869585094966-.363392409566586,.443016555856047-22.442802559786287,21.747262527711428,0,41.958668559041143,22.442774940082927,20.211860030174648,78.475304815080563,69.122156231389454,78.475304815080563,69.122156231389454l42.049179183210072-48.056843979611585c.729463930156271-.312689542965018,3.549124707847113-1.360729464919132,7.476100738872447-.805939430500075,4.947413514028085,.698692130479685,9.467198098267545,3.509756276152984,11.825285333315151,5.52076053523524,5.033842464214104,4.289446633059924,24.20173561525462,21.040422585354463,42.468660301123236,36.869159450037841,18.26692123340581,15.829196042217518,30.982315310599006-2.378449859805187,30.982315310599006-2.378449859805187,0,0,33.847679788961614-38.739430973779236,53.88169915202252-61.941098635714297,8.854931465512891-10.253224910940844,9.397054414437662-21.839577063619799,5.770549661028781-28.863159206286582"/><path class="cls-4" d="M133.770343824084193,42.243213930295497c-6.381918653491084-5.569623239237444-12.725804978338601-11.213018700557768-21.555851093007732-18.933029021319271l-21.568072810819103,24.628018084606992,25.450256591317157,22.165859815183467s4.572717741715678,3.554986989440295,7.92363656834732,5.3017121369503c2.572581835087476,1.343560368119142,4.326101429106529,1.999252076190714,4.60622043935382,2.101969745202041l25.744820705325765-29.401199618115243c-1.510051927355562,.566562932083798-10.188051586549591,3.22239054678721-20.601010400517225-5.863331142508287"/><path class="cls-4" d="M170.400245919607187,110.080147479568041c-5.152400031901379-4.487676681517769-12.915414227532892-8.050811482831705-14.048982006921506-8.560809266722572l-25.833977101013261,29.527007357386537c.730361570444984-.310887357458341,3.549573527991924-1.362535102891343,7.47655646394287-.807738163546674,4.947862334171987,.699137498166237,9.464484462616383,3.512452649489205,11.827985159112359,5.52526599900375,3.565869151741026,3.043221544668995,14.254417344945978,12.355645741965418,26.680659043344349,23.163207227924431l21.515112033639525-24.589985755961607c-9.301569654694504-8.183413668612047-23.900349435031785-21.023232773775817-27.617353592104337-24.256947398083867"/></g></g><polygon class="cls-2" points="196.555633846965975 0 81.816627958234676 131.027959478231423 88.531129244529438 179.099283086234209 224.20467979343357 24.235922569836475 196.555633846965975 0"/><polygon class="cls-6" points="25.154939046121399 123.516260092452285 46.184764235640614 99.715062591134483 81.816627958234676 131.027959478231423 88.531129244529438 179.099283086234209 25.154939046121399 123.516260092452285"/></g><rect class="cls-1" x="212.81014369740933" y="14.81500827525997" width="765.494443364033941" height="162.565155055552168"/></svg>