<svg width="370" height="246" viewBox="0 0 370 246" fill="none" xmlns="http://www.w3.org/2000/svg">
<path d="M313.155 138.559C311.541 140.63 266.149 192.68 266.149 192.68C266.149 192.68 227.671 158.827 220.528 152.61C213.92 146.857 203.969 142.292 202.516 141.637L251.699 85.4528C260.887 75.601 265.754 82.1892 268.222 83.9825C270.757 85.8257 301.864 113.46 311.309 121.519C320.759 129.579 314.767 136.489 313.155 138.559ZM47.1139 124.073C47.9362 122.953 103.262 59.8531 103.262 59.8531L150.89 101.371C150.89 101.371 156.756 105.927 161.051 108.167C164.35 109.887 166.6 110.731 166.958 110.862L106.851 179.466C103.216 176.313 50.6149 130.703 48.1225 128.252C45.7294 125.904 46.2916 125.192 47.1139 124.073ZM364.824 113.35C358.841 101.776 348.32 93.7676 348.32 93.7676L253.989 11.528L199.975 73.1795C198.039 73.9039 186.911 77.3062 173.557 65.6628C158.853 52.8392 129.505 26.6798 119.929 19.1195C110.352 11.5599 96.3385 5.79245 81.4202 22.741C65.1996 41.1703 15.2926 98.1384 14.8272 98.7068C14.3612 99.2746 -13.9528 126.58 14.8272 152.485C43.6072 178.39 115.462 241.078 115.462 241.078L169.385 179.484C170.32 179.083 173.936 177.74 178.972 178.451C185.316 179.347 191.112 182.95 194.136 185.527C200.591 191.025 225.172 212.495 248.597 232.782C272.022 253.07 288.328 229.734 288.328 229.734C288.328 229.734 331.733 180.082 357.424 150.344C368.779 137.203 369.475 122.353 364.824 113.35Z" fill="#A29F9F"/>
<path opacity="0.8" d="M173.475 65.6709C165.291 58.5323 157.156 51.2992 145.833 41.4045L118.174 72.9701L150.811 101.38C150.811 101.38 156.675 105.936 160.972 108.175C164.271 109.897 166.52 110.738 166.879 110.869L199.894 73.1858C197.957 73.912 186.829 77.316 173.475 65.6709Z" fill="#928F8F"/>
<path opacity="0.8" d="M220.449 152.617C213.841 146.865 203.886 142.298 202.432 141.645L169.304 179.489C170.24 179.091 173.856 177.743 178.891 178.454C185.236 179.35 191.028 182.956 194.059 185.536C198.632 189.436 212.339 201.372 228.274 215.224L255.864 183.707C243.936 173.218 225.215 156.762 220.449 152.617Z" fill="#928F8F"/>
<path d="M253.99 11.528L106.851 179.466L115.462 241.078L289.446 42.591L253.99 11.528Z" fill="#64C2E9"/>
<path d="M34.1899 169.838L61.158 139.332L106.851 179.466L115.462 241.078L34.1899 169.838Z" fill="#4EA8D1"/>
</svg>
